HIERARCHY
ROOT RootJoint
{
    OFFSET   0.000000   0.000000   0.000000
    CHANNELS 6 Xposition Yposition Zposition Xrotation Yrotation Zrotation
    JOINT pelvis_lowerback
    {
        OFFSET   0.000000   0.093605   0.000000
        CHANNELS 3 Xrotation Yrotation Zrotation
        JOINT lowerback_torso
        {
            OFFSET   0.000000   0.100000   0.000000
            CHANNELS 3 Xrotation Yrotation Zrotation
            JOINT torso_head
            {
                OFFSET   0.000000   0.282350   0.000000
                CHANNELS 3 Xrotation Yrotation Zrotation
                End Site
                {
                    OFFSET   0.000000   0.192650   0.000000
                }
            }
            JOINT rTorso_Clavicle
            {
                OFFSET  -0.001000   0.157500   0.000000
                CHANNELS 3 Xrotation Yrotation Zrotation
                JOINT rShoulder
                {
                    OFFSET  -0.117647   0.000000   0.000000
                    CHANNELS 3 Xrotation Yrotation Zrotation
                    JOINT rElbow
                    {
                        OFFSET  -0.245000   0.000000   0.000000
                        CHANNELS 3 Xrotation Yrotation Zrotation
                        JOINT rWrist
                        {
                            OFFSET  -0.240000   0.000000   0.000000
                            CHANNELS 3 Xrotation Yrotation Zrotation
                            End Site
                            {
                                OFFSET  -0.116353  -0.002500   0.000000
                            }
                        }
                    }
                }
            }
            JOINT lTorso_Clavicle
            {
                OFFSET   0.001000   0.157500   0.000000
                CHANNELS 3 Xrotation Yrotation Zrotation
                JOINT lShoulder
                {
                    OFFSET   0.117647   0.000000   0.000000
                    CHANNELS 3 Xrotation Yrotation Zrotation
                    JOINT lElbow
                    {
                        OFFSET   0.245000   0.000000   0.000000
                        CHANNELS 3 Xrotation Yrotation Zrotation
                        JOINT lWrist
                        {
                            OFFSET   0.240000   0.000000   0.000000
                            CHANNELS 3 Xrotation Yrotation Zrotation
                            End Site
                            {
                                OFFSET   0.116353  -0.002500   0.000000
                            }
                        }
                    }
                }
            }
        }
    }
    JOINT rHip
    {
        OFFSET  -0.100000  -0.051395   0.000000
        CHANNELS 3 Xrotation Yrotation Zrotation
        JOINT rKnee
        {
            OFFSET   0.000000  -0.410000   0.000000
            CHANNELS 3 Xrotation Yrotation Zrotation
            JOINT rAnkle
            {
                OFFSET   0.000000  -0.390000   0.000000
                CHANNELS 3 Xrotation Yrotation Zrotation
                JOINT rToeJoint
                {
                    OFFSET   0.000000  -0.050000   0.130000
                    CHANNELS 3 Xrotation Yrotation Zrotation
                    End Site
                    {
                        OFFSET  -0.010000   0.002000   0.060000
                    }
                }
            }
        }
    }
    JOINT lHip
    {
        OFFSET   0.100000  -0.051395   0.000000
        CHANNELS 3 Xrotation Yrotation Zrotation
        JOINT lKnee
        {
            OFFSET   0.000000  -0.410000   0.000000
            CHANNELS 3 Xrotation Yrotation Zrotation
            JOINT lAnkle
            {
                OFFSET   0.000000  -0.390000   0.000000
                CHANNELS 3 Xrotation Yrotation Zrotation
                JOINT lToeJoint
                {
                    OFFSET   0.000000  -0.050000   0.130000
                    CHANNELS 3 Xrotation Yrotation Zrotation
                    End Site
                    {
                        OFFSET   0.010000   0.002000   0.060000
                    }
                }
            }
        }
    }
}
MOTION
Frames: 12
Frame Time:   0.008333
 -3.092205   0.958571   3.546464 -131.104032 -46.315282 -99.703998  43.010224  10.717688 -20.226853   9.779656   6.731618 -11.530764   1.481625  -3.528125 -10.206039  -4.037344  15.764973 -17.611105 -28.913300  19.771269  -2.627580   0.001456  43.464936   0.000069   2.363983   5.380797  -9.700029   8.377394   8.107661   2.749348  28.878583  10.335728 -48.025078  -0.004822 -11.174519   0.002273   0.422556  -4.103547  -1.094146  22.005966 -11.093918 -35.983974  14.218675  -0.005906   0.011550  -7.141416   6.033426  -9.047595   3.572278  -0.016315  -0.005331 -88.384636  -3.362845  24.900529  53.117731   0.000716  -0.016843   8.839296  -1.721381  -6.770741  -0.740130   0.000080  -0.000237
 -3.094866   0.957097   3.547233 -131.572931 -45.830806 -99.917633  43.046911  10.641901 -20.603893   9.986114   6.600593 -11.813043   1.517220  -3.510144 -10.133087  -4.084788  16.271373 -17.729053 -28.374385  19.880206  -2.420680   0.001741  43.561771  -0.000761   2.358111   5.344135  -9.770944   8.059817   7.661027   3.117843  28.453872  10.041553 -47.668906  -0.005014 -11.351765   0.002265   0.443761  -3.874906  -1.226183  22.519039 -11.205535 -35.529928  13.521060  -0.000330   0.009763  -6.728009   5.907110  -8.931003   4.168689  -0.017606  -0.005381 -88.907284  -3.582256  25.166571  53.093815   0.000525  -0.013474   8.100977  -1.605968  -6.595174  -0.497992  -0.000180  -0.000442
 -3.097411   0.955416   3.548647 -132.084214 -45.355768 -100.186956  43.068468  10.611773 -20.848445  10.125827   6.489246 -12.056679   1.533183  -3.489453 -10.057585  -4.097508  16.794931 -17.860796 -27.861718  20.022378  -2.218437   0.001929  43.663388  -0.001281   2.368717   5.361060  -9.796296   7.717578   7.169281   3.455058  28.003323   9.717923 -47.311494  -0.005421 -11.544814   0.002044   0.459637  -3.745735  -1.328976  22.897059 -11.368154 -35.400175  12.699661   0.002980   0.010078  -6.652567   5.577525  -8.846234   2.095704  -0.004628   0.008382 -89.405986  -3.823931  25.360263  53.207666   0.000548  -0.010874   7.416993  -1.499066  -6.427970  -0.278021  -0.000239  -0.000711
 -3.099662   0.955571   3.550293 -132.067445 -44.916118 -100.249433  43.066717  10.503141 -20.746017  10.265462   6.335065 -12.151491   1.544923  -3.469843  -9.974103  -4.071799  17.294256 -17.856176 -27.374266  20.153054  -1.968198   0.002306  43.777772  -0.001661   2.400951   5.487460  -9.836102   7.325527   6.625393   3.638764  27.510222   9.346230 -47.003627  -0.005631 -11.750614   0.001853   0.470546  -3.712993  -1.365592  23.583784 -11.360716 -35.456163  12.428387   0.001960   0.007989  -6.670550   5.526348  -8.864671   1.882832  -0.004060   0.006704 -89.805766  -3.958335  25.178967  53.355579   0.000859  -0.008666   6.776888  -1.404624  -6.272959  -0.087480   0.000085  -0.000673
 -3.101500   0.955878   3.551678 -132.194832 -44.593658 -100.535126  42.988241  10.454750 -20.716882  10.314044   6.206828 -12.181601   1.536693  -3.445626  -9.873739  -4.024005  17.766928 -17.854696 -26.908835  20.269099  -1.709994   0.002517  43.873432  -0.001920   2.417262   5.569050  -9.792065   6.953868   6.099817   3.856218  27.039399   8.983521 -46.702979  -0.005872 -11.959558   0.001764   0.474256  -3.806806  -1.438314  24.141408 -11.316812 -35.416075  11.980500   0.001025   0.006535  -6.516090   5.545402  -8.721561   1.675558  -0.003243   0.005349 -90.232908  -4.090175  25.141363  53.489465   0.001101  -0.006802   6.181328  -1.319752  -6.129398   0.100553   0.000420  -0.000481
 -3.102974   0.956219   3.552942 -132.374770 -44.337585 -100.901898  42.885361  10.399846 -20.713752  10.326961   6.070882 -12.203916   1.519356  -3.421533  -9.778530  -3.978388  18.208878 -17.866999 -26.473417  20.380040  -1.473069   0.002621  43.959508  -0.002118   2.427797   5.623428  -9.722266   6.610002   5.589066   4.089137  26.596602   8.638496 -46.401543  -0.006058 -12.160190   0.001787   0.475580  -3.949364  -1.489046  24.617034 -11.243298 -35.328635  11.479896   0.000336   0.005442  -6.302031   5.581313  -8.594182   1.507054  -0.002575   0.004269 -90.612283  -4.209460  25.145941  53.617607   0.001279  -0.005308   5.625638  -1.240837  -5.994576   0.274434   0.000679  -0.000293
 -3.104147   0.956544   3.554150 -132.579858 -44.119999 -101.316086  42.774509  10.331964 -20.718638  10.326766   5.924299 -12.223108   1.501053  -3.399022  -9.690543  -3.940988  18.619125 -17.892221 -26.068772  20.486393  -1.261603   0.002653  44.039011  -0.002263   2.436730   5.667716  -9.656541   6.293984   5.097020   4.327642  26.182894   8.312839 -46.103734  -0.006157 -12.349633   0.001877   0.476948  -4.105715  -1.507744  25.017084 -11.160819 -35.215614  10.973019  -0.000130   0.004700  -6.061253   5.606267  -8.483485   1.371342  -0.002042   0.003460 -90.931455  -4.311054  25.169143  53.751437   0.001445  -0.004104   5.107444  -1.167826  -5.867914   0.435363   0.000880  -0.000127
 -3.105276   0.956721   3.555295 -132.798673 -43.891015 -101.921862  42.510475  10.370955 -20.624040  10.399079   5.789109 -12.149880   1.569349  -3.415486  -9.506409  -3.904115  19.067095 -17.960260 -25.392601  20.586492  -0.958835   0.004152  44.233675  -0.003789   2.449631   5.598315  -9.815502   6.085639   4.568497   4.577546  25.939972   7.842745 -46.025624  -0.006524 -12.630434   0.002933   0.562368  -4.069870  -1.374560  25.471776 -10.932267 -34.894541  10.487329  -0.000336   0.003828  -5.845411   5.564508  -8.547118   1.293455  -0.001714   0.002805 -91.276512  -4.689202  25.146340  54.580580   0.003622  -0.003013   4.527872  -1.041644  -5.722114   0.600660   0.000993   0.000061
 -3.106029   0.956829   3.556408 -133.013464 -43.682507 -102.562755  42.248331  10.389024 -20.528392  10.463085   5.651629 -12.052128   1.627459  -3.432743  -9.318315  -3.827248  19.506039 -18.004982 -24.742808  20.699305  -0.640251   0.005547  44.426736  -0.005089   2.474190   5.586801  -9.875605   5.877811   4.048947   4.794923  25.697559   7.383182 -45.964299  -0.006697 -12.903875   0.003844   0.651521  -4.071392  -1.276066  25.853067 -10.691498 -34.537402  10.038212  -0.000402   0.003250  -5.623660   5.522904  -8.611841   1.263445  -0.001398   0.002268 -91.528336  -5.020215  25.079006  55.515602   0.006098  -0.002331   3.993927  -0.924641  -5.584186   0.760046   0.001159   0.000199
 -3.106411   0.956892   3.557499 -133.234790 -43.495907 -103.244100  41.996773  10.394122 -20.427792  10.524782   5.513414 -11.949142   1.677600  -3.448609  -9.139741  -3.733260  19.925650 -18.029166 -24.128028  20.812460  -0.322088   0.006677  44.610152  -0.006082   2.502078   5.601953  -9.872897   5.672948   3.543986   4.986197  25.457679   6.939729 -45.909365  -0.006706 -13.166792   0.004612   0.736007  -4.113631  -1.189213  26.156969 -10.441920 -34.150387   9.616266  -0.000377   0.002920  -5.399932   5.479714  -8.672246   1.327101  -0.001072   0.001740 -91.682547  -5.283390  24.988558  56.450702   0.008528  -0.001889   3.498359  -0.817140  -5.454697   0.914373   0.001368   0.000303
 -3.106472   0.956925   3.558581 -133.470383 -43.328558 -103.970781  41.756323  10.391222 -20.323481  10.585660   5.377176 -11.845074   1.722598  -3.463061  -8.972398  -3.631776  20.321174 -18.038856 -23.549022  20.921913  -0.011734   0.007521  44.782462  -0.006794   2.530357   5.627130  -9.832008   5.475960   3.060658   5.156788  25.225897   6.516955 -45.860207  -0.006578 -13.417053   0.005239   0.816394  -4.183097  -1.107808  26.388170 -10.186615 -33.737646   9.211902  -0.000299   0.002797  -5.176023   5.433301  -8.727881   1.500469  -0.000759   0.001115 -91.749364  -5.485378  24.887821  57.362383   0.010779  -0.001609   3.037427  -0.718215  -5.333213   1.061854   0.001591   0.000379
 -3.106266   0.956937   3.559672 -133.724805 -43.177389 -104.742933  41.526974  10.383043 -20.217528  10.645682   5.244874 -11.741469   1.763814  -3.476325  -8.816147  -3.528373  20.690784 -18.038676 -23.005148  21.025839   0.286613   0.008095  44.943479  -0.007261   2.557844   5.654830  -9.767108   5.290133   2.603566   5.310849  25.006083   6.117769 -45.816645  -0.006342 -13.653213   0.005726   0.893293  -4.266575  -1.031150  26.552682  -9.928504 -33.304683   8.818938  -0.000196   0.002838  -4.953690   5.382692  -8.778719   1.787821  -0.000481   0.000302 -91.740755  -5.634880  24.783945  58.243885   0.012788  -0.001458   2.608499  -0.627050  -5.219252   1.202344   0.001811   0.000428
